<svg width="81" height="81" viewBox="0 0 81 81" fill="none" xmlns="http://www.w3.org/2000/svg">
<path d="M40 40.5C40 40.2239 40.2239 40 40.5 40V40C40.7761 40 41 40.2239 41 40.5V40.5C41 40.7761 40.7761 41 40.5 41V41C40.2239 41 40 40.7761 40 40.5V40.5Z" fill="#444444"/>
<path d="M40.5 40C40.7761 40 41 40.2239 41 40.5H39C39 41.3284 39.6716 42 40.5 42V40ZM40 40.5C40 40.2239 40.2239 40 40.5 40V42C41.3284 42 42 41.3284 42 40.5H40ZM40.5 41C40.2239 41 40 40.7761 40 40.5H42C42 39.6716 41.3284 39 40.5 39V41ZM40.5 39C39.6716 39 39 39.6716 39 40.5H41C41 40.7761 40.7761 41 40.5 41V39Z" fill="white" fill-opacity="0.1"/>
<mask id="path-3-inside-1_0_1" fill="white">
<path d="M40 40.1777C40 40.0796 40.0796 40 40.1777 40H40.5C40.7761 40 41 40.2239 41 40.5V40.6698C41 40.8522 40.8522 41 40.6698 41H40.5974C40.455 41 40.3396 40.8846 40.3396 40.7422V40.4857C40.3396 40.3986 40.2446 40.3447 40.1698 40.3893V40.3893C40.095 40.434 40 40.3801 40 40.2929V40.1777Z"/>
</mask>
<path d="M40 40.1777C40 40.0796 40.0796 40 40.1777 40H40.5C40.7761 40 41 40.2239 41 40.5V40.6698C41 40.8522 40.8522 41 40.6698 41H40.5974C40.455 41 40.3396 40.8846 40.3396 40.7422V40.4857C40.3396 40.3986 40.2446 40.3447 40.1698 40.3893V40.3893C40.095 40.434 40 40.3801 40 40.2929V40.1777Z" fill="#8F7E70"/>
<path d="M40.1777 41H40.5V39H40.1777V41ZM40 40.5V40.6698H42V40.5H40ZM40.6698 40H40.5974V42H40.6698V40ZM41.3396 40.7422V40.4857H39.3396V40.7422H41.3396ZM41 40.2929V40.1777H39V40.2929H41ZM39.6573 39.5306C40.249 39.1775 41 39.6038 41 40.2929H39C39 41.1563 39.9409 41.6905 40.6823 41.248L39.6573 39.5306ZM41.3396 40.4857C41.3396 39.6223 40.3987 39.0882 39.6573 39.5306L40.6823 41.248C40.0905 41.6012 39.3396 41.1748 39.3396 40.4857H41.3396ZM40.5974 40C41.0073 40 41.3396 40.3323 41.3396 40.7422H39.3396C39.3396 41.4368 39.9027 42 40.5974 42V40ZM40 40.6698C40 40.2999 40.2999 40 40.6698 40V42C41.4044 42 42 41.4044 42 40.6698H40ZM40.5 41C40.2239 41 40 40.7761 40 40.5H42C42 39.6716 41.3284 39 40.5 39V41ZM40.1777 39C39.5273 39 39 39.5273 39 40.1777H41C41 40.6318 40.6318 41 40.1777 41V39Z" fill="black" mask="url(#path-3-inside-1_0_1)"/>
</svg>
